Coordinates
version=1
nRows=13
nColumns=34
inDegrees=yes

Units are S.I. units (second, meters, Newtons, ...)
If the header above contains a line with 'inDegrees', this indicates whether rotational values are in degrees (yes) or radians (no).

endheader
time	pelvis_tilt	pelvis_list	pelvis_rotation	pelvis_tx	pelvis_ty	pelvis_tz	hip_flexion_r	hip_adduction_r	hip_rotation_r	knee_angle_r	ankle_angle_r	subtalar_angle_r	mtp_angle_r	hip_flexion_l	hip_adduction_l	hip_rotation_l	knee_angle_l	ankle_angle_l	subtalar_angle_l	mtp_angle_l	lumbar_extension	lumbar_bending	lumbar_rotation	arm_flex_r	arm_add_r	arm_rot_r	elbow_flex_r	pro_sup_r	arm_flex_l	arm_add_l	arm_rot_l	elbow_flex_l	pro_sup_l
      1.51666670	     -4.16697655	     -0.49432909	      0.29278129	     -0.00843159	      1.16403304	     -0.10668702	     -1.95491618	      1.19238606	     -2.91392769	      0.00000000	      9.48286672	     -2.38523057	      0.00000000	     -0.43947587	      1.22777109	     -0.91039468	      0.00000000	      7.73267712	     -0.67986139	      0.00000000	      0.26693213	      0.08742671	      0.08595324	      0.39923960	     -5.21495159	     22.89579628	     27.94621842	     75.25035207	      3.64370708	     -8.10887780	     25.64689152	     26.85429126	     78.32680845
      1.53333330	     -3.98633701	     -0.52461429	      0.08858025	     -0.00878810	      1.16224204	     -0.10600580	     -2.14697633	      1.20354502	     -2.40189545	      0.00000000	      9.70209136	     -2.39781521	      0.00000000	     -0.67215785	      1.22099628	     -0.97693156	      0.00000000	      8.06490829	     -0.87343850	      0.00000000	      0.28693314	      0.09124867	     -0.09674999	      0.34199023	     -5.24457671	     22.81823310	     27.70706914	     75.31122061	      3.20413913	     -8.08663458	     25.54836458	     26.03698435	     78.51357569
      1.55000000	     -3.94656518	     -0.53121456	      0.09026331	     -0.00974263	      1.16215914	     -0.10686225	     -2.14151517	      1.21432288	     -2.39607928	      0.00000000	      9.70346510	     -2.39700124	      0.00000000	     -0.64878545	      1.23141707	     -0.97281789	      0.00000000	      8.06593652	     -0.87117848	      0.00000000	      0.28635507	      0.08890838	     -0.09461576	      0.33083157	     -5.25384345	     22.81735647	     27.70013323	     75.31162748	      3.19145242	     -8.09557405	     25.54695759	     26.02808158	     78.51485317
      1.56666670	     -3.85700200	     -0.57727393	      0.19940538	     -0.00905657	      1.16330358	     -0.10717978	     -2.27792885	      1.25457269	     -2.03201397	      0.00000000	      9.97035816	     -2.51930577	      0.00000000	     -0.71245306	      1.17944793	     -0.64700003	      0.00000000	      8.29500970	     -0.76115044	      0.00000000	      0.32989491	      0.11602771	     -0.21817527	      0.16096373	     -5.40032078	     22.72402503	     27.28857672	     75.37772508	      3.02493917	     -8.07418096	     25.39775231	     25.38439296	     78.71129041
      1.58333330	     -3.86424769	     -0.58468380	      0.20026399	     -0.00929009	      1.16319252	     -0.10684681	     -2.28523916	      1.24976586	     -2.03216664	      0.00162176	      9.96976407	     -2.51942126	      0.00000000	     -0.71375888	      1.18133182	     -0.64705598	      0.00000000	      8.29469814	     -0.76110180	      0.00000000	      0.33026814	      0.11574874	     -0.21805621	      0.16017177	     -5.40213445	     22.72374282	     27.28773795	     75.37775527	      3.02365245	     -8.07491792	     25.39761106	     25.38351931	     78.71145062
      1.60000000	     -3.78407964	     -0.58817520	      0.25538462	     -0.00860007	      1.16151636	     -0.10712050	     -2.42115253	      1.27278136	     -1.95334743	      0.00293373	      9.94458820	     -2.50619509	      0.00000000	     -0.80939736	      1.15797393	     -0.63534441	      0.00000000	      8.28585180	     -0.76484725	      0.00000000	      0.38323141	      0.00434370	     -0.22283334	     -0.03358110	     -5.68794853	     22.68361880	     27.14100007	     75.37879119	      2.81644939	     -8.23991600	     25.37617950	     25.24844360	     78.72692493
      1.61666670	     -3.68027582	     -0.56487456	      0.17577993	     -0.00860403	      1.16294052	     -0.10731425	     -2.54133099	      1.22522403	     -1.94366031	      0.05392262	      9.92586590	     -2.54497621	      0.00000000	     -0.94165815	      1.18714802	     -0.58329505	      0.00000000	      8.26971526	     -0.75178301	      0.00000000	      0.48931798	      0.01028310	     -0.24466747	     -0.16791606	     -5.78352885	     22.66335238	     27.03668670	     75.38265324	      2.72350407	     -8.30826983	     25.35498859	     25.15444986	     78.74423255
      1.63333330	     -3.67950682	     -0.57184036	      0.17750999	     -0.00886334	      1.16175751	     -0.10698172	     -2.54526914	      1.22519375	     -1.94341899	      0.05679310	      9.92540193	     -2.54524488	      0.00000000	     -0.94385010	      1.19261116	     -0.58321511	      0.00000000	      8.26964368	     -0.75182719	      0.00000000	      0.48950778	      0.00935270	     -0.24459923	     -0.16917486	     -5.78496503	     22.66307626	     27.03545698	     75.38267343	      2.72199810	     -8.30866081	     25.35485543	     25.15338978	     78.74438804
      1.65000000	     -3.54560591	     -0.60614819	      0.16173712	     -0.01174928	      1.16249221	     -0.10696148	     -2.56158423	      1.28240754	     -1.90798837	      0.25235367	      9.93778584	     -2.60074254	      0.00000000	     -1.06884552	      1.15193633	     -0.55376398	      0.00000000	      8.30110247	     -0.77929007	      0.00000000	      0.51854206	     -0.12803888	     -0.26860957	     -0.30805705	     -6.00131719	     22.62449991	     26.89378674	     75.38241433	      2.64544988	     -8.44801713	     25.32334814	     25.05363097	     78.75614228
      1.66666670	     -3.53410287	     -0.60824004	      0.16040962	     -0.01138759	      1.16351079	     -0.10692942	     -2.55492786	      1.27920597	     -1.90830444	      0.25050529	      9.93839430	     -2.60196653	      0.00000000	     -1.06352753	      1.15180714	     -0.55316064	      0.00000000	      8.30137229	     -0.77957236	      0.00000000	      0.51881960	     -0.12772969	     -0.26866085	     -0.30834639	     -6.00207340	     22.62422968	     26.89283803	     75.38242993	      2.64600726	     -8.44936489	     25.32290460	     25.05299294	     78.75625811
      1.68333330	     -3.50933595	     -0.60616319	      0.15669622	     -0.01054089	      1.16383153	     -0.10711464	     -2.54474961	      1.27959864	     -1.90815020	      0.24843993	      9.93888392	     -2.60287806	      0.00000000	     -1.05178308	      1.15119362	     -0.55204872	      0.00000000	      8.30144428	     -0.77964909	      0.00000000	      0.51839849	     -0.12831149	     -0.26906919	     -0.30869624	     -6.00387636	     22.62378607	     26.89157407	     75.38241382	      2.64714905	     -8.45162053	     25.32231341	     25.05232209	     78.75633785
      1.70000000	     -3.29259868	     -0.45679873	     -0.09807749	     -0.01156351	      1.16241834	     -0.10694948	     -2.27229415	      1.06624059	     -1.70196942	      1.13258331	     10.35315191	     -3.08245973	      0.00000000	     -1.25820631	      1.33534953	     -0.41618624	      0.00000000	      8.27538244	     -1.05369171	      0.00000000	      0.11934428	     -0.37949069	     -0.07405369	     -0.09557083	     -6.12450708	     22.47995055	     26.43572930	     75.38818517	      2.88540818	     -8.67448857	     25.14869493	     24.82369120	     78.82012231
      1.71666670	     -3.28239666	     -0.46693327	     -0.11637486	     -0.01196787	      1.16431033	     -0.10696299	     -2.28712339	      1.06536019	     -1.70043396	      1.13991444	     10.35349650	     -3.08611250	      0.00000000	     -1.23310958	      1.34100102	     -0.41515388	      0.00000000	      8.27114256	     -1.05617148	      0.00000000	      0.11935722	     -0.38363873	     -0.07752028	     -0.10287233	     -6.13532440	     22.47723584	     26.42629539	     75.38812889	      2.88891830	     -8.68126019	     25.14586563	     24.82124471	     78.82095802
